<?xml version="1.0" encoding="utf-8" standalone="no"?>
<!DOCTYPE svg PUBLIC "-//W3C//DTD SVG 1.1//EN"
  "http://www.w3.org/Graphics/SVG/1.1/DTD/svg11.dtd">
<!-- Created with matplotlib (http://matplotlib.org/) -->
<svg height="2160pt" version="1.1" viewBox="0 0 4320 2160" width="4320pt" xmlns="http://www.w3.org/2000/svg" xmlns:xlink="http://www.w3.org/1999/xlink">
 <defs>
  <style type="text/css">
*{stroke-linecap:butt;stroke-linejoin:round;}
  </style>
 </defs>
 <g id="figure_1">
  <g id="patch_1">
   <path d="fmoments 0 2160
L 4320 2160 
L 4320 0 
L 0 0 
z
" style="fill:#ffffff;"/>
  </g>
  <g id="axes_1">
   <g id="patch_2">
    <path d="fmoments 540 1890
L 3888 1890 
L 3888 259.2 
L 540 259.2 
z
" style="fill:#ffffff;"/>
   </g>
   <g id="matplotlib.axis_1">
    <g id="xtick_1">
     <g id="line2d_1">
      <defs>
       <path d="fmoments 0 0
L 0 3.5 
" id="mec7425bfc1" style="stroke:#000000;stroke-width:0.8;"/>
      </defs>
      <g>
       <use style="stroke:#000000;stroke-width:0.8;" x="664.788599" xlink:href="#mec7425bfc1" y="1890"/>
      </g>
     </g>
     <g id="text_1">
      <!-- 0 -->
      <defs>
       <path d="fmoments 31.78125 66.40625
Q 24.171875 66.40625 20.328125 58.90625 
Q 16.5 51.421875 16.5 36.375 
Q 16.5 21.390625 20.328125 13.890625 
Q 24.171875 6.390625 31.78125 6.390625 
Q 39.453125 6.390625 43.28125 13.890625 
Q 47.125 21.390625 47.125 36.375 
Q 47.125 51.421875 43.28125 58.90625 
Q 39.453125 66.40625 31.78125 66.40625 
z
fmoments 31.78125 74.21875
Q 44.046875 74.21875 50.515625 64.515625 
Q 56.984375 54.828125 56.984375 36.375 
Q 56.984375 17.96875 50.515625 8.265625 
Q 44.046875 -1.421875 31.78125 -1.421875 
Q 19.53125 -1.421875 13.0625 8.265625 
Q 6.59375 17.96875 6.59375 36.375 
Q 6.59375 54.828125 13.0625 64.515625 
Q 19.53125 74.21875 31.78125 74.21875 
z
" id="DejaVuSans-30"/>
      </defs>
      <g transform="translate(661.607349 1904.598438)scale(0.1 -0.1)">
       <use xlink:href="#DejaVuSans-30"/>
      </g>
     </g>
    </g>
    <g id="xtick_2">
     <g id="line2d_2">
      <g>
       <use style="stroke:#000000;stroke-width:0.8;" x="1120.43097" xlink:href="#mec7425bfc1" y="1890"/>
      </g>
     </g>
     <g id="text_2">
      <!-- 10 -->
      <defs>
       <path d="fmoments 12.40625 8.296875
L 28.515625 8.296875 
L 28.515625 63.921875 
L 10.984375 60.40625 
L 10.984375 69.390625 
L 28.421875 72.90625 
L 38.28125 72.90625 
L 38.28125 8.296875 
L 54.390625 8.296875 
L 54.390625 0 
L 12.40625 0 
z
" id="DejaVuSans-31"/>
      </defs>
      <g transform="translate(1114.06847 1904.598438)scale(0.1 -0.1)">
       <use xlink:href="#DejaVuSans-31"/>
       <use x="63.623047" xlink:href="#DejaVuSans-30"/>
      </g>
     </g>
    </g>
    <g id="xtick_3">
     <g id="line2d_3">
      <g>
       <use style="stroke:#000000;stroke-width:0.8;" x="1576.073342" xlink:href="#mec7425bfc1" y="1890"/>
      </g>
     </g>
     <g id="text_3">
      <!-- 20 -->
      <defs>
       <path d="fmoments 19.1875 8.296875
L 53.609375 8.296875 
L 53.609375 0 
L 7.328125 0 
L 7.328125 8.296875 
Q 12.9375 14.109375 22.625 23.890625 
Q 32.328125 33.6875 34.8125 36.53125 
Q 39.546875 41.84375 41.421875 45.53125 
Q 43.3125 49.21875 43.3125 52.78125 
Q 43.3125 58.59375 39.234375 62.25 
Q 35.15625 65.921875 28.609375 65.921875 
Q 23.96875 65.921875 18.8125 64.3125 
Q 13.671875 62.703125 7.8125 59.421875 
L 7.8125 69.390625 
Q 13.765625 71.78125 18.9375 73 
Q 24.125 74.21875 28.421875 74.21875 
Q 39.75 74.21875 46.484375 68.546875 
Q 53.21875 62.890625 53.21875 53.421875 
Q 53.21875 48.921875 51.53125 44.890625 
Q 49.859375 40.875 45.40625 35.40625 
Q 44.1875 33.984375 37.640625 27.21875 
Q 31.109375 20.453125 19.1875 8.296875 
z
" id="DejaVuSans-32"/>
      </defs>
      <g transform="translate(1569.710842 1904.598438)scale(0.1 -0.1)">
       <use xlink:href="#DejaVuSans-32"/>
       <use x="63.623047" xlink:href="#DejaVuSans-30"/>
      </g>
     </g>
    </g>
    <g id="xtick_4">
     <g id="line2d_4">
      <g>
       <use style="stroke:#000000;stroke-width:0.8;" x="2031.715713" xlink:href="#mec7425bfc1" y="1890"/>
      </g>
     </g>
     <g id="text_4">
      <!-- 30 -->
      <defs>
       <path d="fmoments 40.578125 39.3125
Q 47.65625 37.796875 51.625 33 
Q 55.609375 28.21875 55.609375 21.1875 
Q 55.609375 10.40625 48.1875 4.484375 
Q 40.765625 -1.421875 27.09375 -1.421875 
Q 22.515625 -1.421875 17.65625 -0.515625 
Q 12.796875 0.390625 7.625 2.203125 
L 7.625 11.71875 
Q 11.71875 9.328125 16.59375 8.109375 
Q 21.484375 6.890625 26.8125 6.890625 
Q 36.078125 6.890625 40.9375 10.546875 
Q 45.796875 14.203125 45.796875 21.1875 
Q 45.796875 27.640625 41.28125 31.265625 
Q 36.765625 34.90625 28.71875 34.90625 
L 20.21875 34.90625 
L 20.21875 43.015625 
L 29.109375 43.015625 
Q 36.375 43.015625 40.234375 45.921875 
Q 44.09375 48.828125 44.09375 54.296875 
Q 44.09375 59.90625 40.109375 62.90625 
Q 36.140625 65.921875 28.71875 65.921875 
Q 24.65625 65.921875 20.015625 65.03125 
Q 15.375 64.15625 9.8125 62.3125 
L 9.8125 71.09375 
Q 15.4375 72.65625 20.34375 73.4375 
Q 25.25 74.21875 29.59375 74.21875 
Q 40.828125 74.21875 47.359375 69.109375 
Q 53.90625 64.015625 53.90625 55.328125 
Q 53.90625 49.265625 50.4375 45.09375 
Q 46.96875 40.921875 40.578125 39.3125 
z
" id="DejaVuSans-33"/>
      </defs>
      <g transform="translate(2025.353213 1904.598438)scale(0.1 -0.1)">
       <use xlink:href="#DejaVuSans-33"/>
       <use x="63.623047" xlink:href="#DejaVuSans-30"/>
      </g>
     </g>
    </g>
    <g id="xtick_5">
     <g id="line2d_5">
      <g>
       <use style="stroke:#000000;stroke-width:0.8;" x="2487.358084" xlink:href="#mec7425bfc1" y="1890"/>
      </g>
     </g>
     <g id="text_5">
      <!-- 40 -->
      <defs>
       <path d="fmoments 37.796875 64.3125
L 12.890625 25.390625 
L 37.796875 25.390625 
z
fmoments 35.203125 72.90625
L 47.609375 72.90625 
L 47.609375 25.390625 
L 58.015625 25.390625 
L 58.015625 17.1875 
L 47.609375 17.1875 
L 47.609375 0 
L 37.796875 0 
L 37.796875 17.1875 
L 4.890625 17.1875 
L 4.890625 26.703125 
z
" id="DejaVuSans-34"/>
      </defs>
      <g transform="translate(2480.995584 1904.598438)scale(0.1 -0.1)">
       <use xlink:href="#DejaVuSans-34"/>
       <use x="63.623047" xlink:href="#DejaVuSans-30"/>
      </g>
     </g>
    </g>
    <g id="xtick_6">
     <g id="line2d_6">
      <g>
       <use style="stroke:#000000;stroke-width:0.8;" x="2943.000456" xlink:href="#mec7425bfc1" y="1890"/>
      </g>
     </g>
     <g id="text_6">
      <!-- 50 -->
      <defs>
       <path d="fmoments 10.796875 72.90625
L 49.515625 72.90625 
L 49.515625 64.59375 
L 19.828125 64.59375 
L 19.828125 46.734375 
Q 21.96875 47.46875 24.109375 47.828125 
Q 26.265625 48.1875 28.421875 48.1875 
Q 40.625 48.1875 47.75 41.5 
Q 54.890625 34.8125 54.890625 23.390625 
Q 54.890625 11.625 47.5625 5.09375 
Q 40.234375 -1.421875 26.90625 -1.421875 
Q 22.3125 -1.421875 17.546875 -0.640625 
Q 12.796875 0.140625 7.71875 1.703125 
L 7.71875 11.625 
Q 12.109375 9.234375 16.796875 8.0625 
Q 21.484375 6.890625 26.703125 6.890625 
Q 35.15625 6.890625 40.078125 11.328125 
Q 45.015625 15.765625 45.015625 23.390625 
Q 45.015625 31 40.078125 35.4375 
Q 35.15625 39.890625 26.703125 39.890625 
Q 22.75 39.890625 18.8125 39.015625 
Q 14.890625 38.140625 10.796875 36.28125 
z
" id="DejaVuSans-35"/>
      </defs>
      <g transform="translate(2936.637956 1904.598438)scale(0.1 -0.1)">
       <use xlink:href="#DejaVuSans-35"/>
       <use x="63.623047" xlink:href="#DejaVuSans-30"/>
      </g>
     </g>
    </g>
    <g id="xtick_7">
     <g id="line2d_7">
      <g>
       <use style="stroke:#000000;stroke-width:0.8;" x="3398.642827" xlink:href="#mec7425bfc1" y="1890"/>
      </g>
     </g>
     <g id="text_7">
      <!-- 60 -->
      <defs>
       <path d="fmoments 33.015625 40.375
Q 26.375 40.375 22.484375 35.828125 
Q 18.609375 31.296875 18.609375 23.390625 
Q 18.609375 15.53125 22.484375 10.953125 
Q 26.375 6.390625 33.015625 6.390625 
Q 39.65625 6.390625 43.53125 10.953125 
Q 47.40625 15.53125 47.40625 23.390625 
Q 47.40625 31.296875 43.53125 35.828125 
Q 39.65625 40.375 33.015625 40.375 
z
fmoments 52.59375 71.296875
L 52.59375 62.3125 
Q 48.875 64.0625 45.09375 64.984375 
Q 41.3125 65.921875 37.59375 65.921875 
Q 27.828125 65.921875 22.671875 59.328125 
Q 17.53125 52.734375 16.796875 39.40625 
Q 19.671875 43.65625 24.015625 45.921875 
Q 28.375 48.1875 33.59375 48.1875 
Q 44.578125 48.1875 50.953125 41.515625 
Q 57.328125 34.859375 57.328125 23.390625 
Q 57.328125 12.15625 50.6875 5.359375 
Q 44.046875 -1.421875 33.015625 -1.421875 
Q 20.359375 -1.421875 13.671875 8.265625 
Q 6.984375 17.96875 6.984375 36.375 
Q 6.984375 53.65625 15.1875 63.9375 
Q 23.390625 74.21875 37.203125 74.21875 
Q 40.921875 74.21875 44.703125 73.484375 
Q 48.484375 72.75 52.59375 71.296875 
z
" id="DejaVuSans-36"/>
      </defs>
      <g transform="translate(3392.280327 1904.598438)scale(0.1 -0.1)">
       <use xlink:href="#DejaVuSans-36"/>
       <use x="63.623047" xlink:href="#DejaVuSans-30"/>
      </g>
     </g>
    </g>
    <g id="xtick_8">
     <g id="line2d_8">
      <g>
       <use style="stroke:#000000;stroke-width:0.8;" x="3854.285198" xlink:href="#mec7425bfc1" y="1890"/>
      </g>
     </g>
     <g id="text_8">
      <!-- 70 -->
      <defs>
       <path d="fmoments 8.203125 72.90625
L 55.078125 72.90625 
L 55.078125 68.703125 
L 28.609375 0 
L 18.3125 0 
L 43.21875 64.59375 
L 8.203125 64.59375 
z
" id="DejaVuSans-37"/>
      </defs>
      <g transform="translate(3847.922698 1904.598438)scale(0.1 -0.1)">
       <use xlink:href="#DejaVuSans-37"/>
       <use x="63.623047" xlink:href="#DejaVuSans-30"/>
      </g>
     </g>
    </g>
   </g>
   <g id="matplotlib.axis_2">
    <g id="ytick_1">
     <g id="line2d_9">
      <defs>
       <path d="fmoments 0 0
L -3.5 0 
" id="m6e30b54b2c" style="stroke:#000000;stroke-width:0.8;"/>
      </defs>
      <g>
       <use style="stroke:#000000;stroke-width:0.8;" x="540" xlink:href="#m6e30b54b2c" y="1853.726722"/>
      </g>
     </g>
     <g id="text_9">
      <!-- 0.6 -->
      <defs>
       <path d="fmoments 10.6875 12.40625
L 21 12.40625 
L 21 0 
L 10.6875 0 
z
" id="DejaVuSans-2e"/>
      </defs>
      <g transform="translate(517.096875 1857.525941)scale(0.1 -0.1)">
       <use xlink:href="#DejaVuSans-30"/>
       <use x="63.623047" xlink:href="#DejaVuSans-2e"/>
       <use x="95.410156" xlink:href="#DejaVuSans-36"/>
      </g>
     </g>
    </g>
    <g id="ytick_2">
     <g id="line2d_10">
      <g>
       <use style="stroke:#000000;stroke-width:0.8;" x="540" xlink:href="#m6e30b54b2c" y="1645.737741"/>
      </g>
     </g>
     <g id="text_10">
      <!-- 0.8 -->
      <defs>
       <path d="fmoments 31.78125 34.625
Q 24.75 34.625 20.71875 30.859375 
Q 16.703125 27.09375 16.703125 20.515625 
Q 16.703125 13.921875 20.71875 10.15625 
Q 24.75 6.390625 31.78125 6.390625 
Q 38.8125 6.390625 42.859375 10.171875 
Q 46.921875 13.96875 46.921875 20.515625 
Q 46.921875 27.09375 42.890625 30.859375 
Q 38.875 34.625 31.78125 34.625 
z
fmoments 21.921875 38.8125
Q 15.578125 40.375 12.03125 44.71875 
Q 8.5 49.078125 8.5 55.328125 
Q 8.5 64.0625 14.71875 69.140625 
Q 20.953125 74.21875 31.78125 74.21875 
Q 42.671875 74.21875 48.875 69.140625 
Q 55.078125 64.0625 55.078125 55.328125 
Q 55.078125 49.078125 51.53125 44.71875 
Q 48 40.375 41.703125 38.8125 
Q 48.828125 37.15625 52.796875 32.3125 
Q 56.78125 27.484375 56.78125 20.515625 
Q 56.78125 9.90625 50.3125 4.234375 
Q 43.84375 -1.421875 31.78125 -1.421875 
Q 19.734375 -1.421875 13.25 4.234375 
Q 6.78125 9.90625 6.78125 20.515625 
Q 6.78125 27.484375 10.78125 32.3125 
Q 14.796875 37.15625 21.921875 38.8125 
z
fmoments 18.3125 54.390625
Q 18.3125 48.734375 21.84375 45.5625 
Q 25.390625 42.390625 31.78125 42.390625 
Q 38.140625 42.390625 41.71875 45.5625 
Q 45.3125 48.734375 45.3125 54.390625 
Q 45.3125 60.0625 41.71875 63.234375 
Q 38.140625 66.40625 31.78125 66.40625 
Q 25.390625 66.40625 21.84375 63.234375 
Q 18.3125 60.0625 18.3125 54.390625 
z
" id="DejaVuSans-38"/>
      </defs>
      <g transform="translate(517.096875 1649.53696)scale(0.1 -0.1)">
       <use xlink:href="#DejaVuSans-30"/>
       <use x="63.623047" xlink:href="#DejaVuSans-2e"/>
       <use x="95.410156" xlink:href="#DejaVuSans-38"/>
      </g>
     </g>
    </g>
    <g id="ytick_3">
     <g id="line2d_11">
      <g>
       <use style="stroke:#000000;stroke-width:0.8;" x="540" xlink:href="#m6e30b54b2c" y="1437.74876"/>
      </g>
     </g>
     <g id="text_11">
      <!-- 1.0 -->
      <g transform="translate(517.096875 1441.547979)scale(0.1 -0.1)">
       <use xlink:href="#DejaVuSans-31"/>
       <use x="63.623047" xlink:href="#DejaVuSans-2e"/>
       <use x="95.410156" xlink:href="#DejaVuSans-30"/>
      </g>
     </g>
    </g>
    <g id="ytick_4">
     <g id="line2d_12">
      <g>
       <use style="stroke:#000000;stroke-width:0.8;" x="540" xlink:href="#m6e30b54b2c" y="1229.75978"/>
      </g>
     </g>
     <g id="text_12">
      <!-- 1.2 -->
      <g transform="translate(517.096875 1233.558998)scale(0.1 -0.1)">
       <use xlink:href="#DejaVuSans-31"/>
       <use x="63.623047" xlink:href="#DejaVuSans-2e"/>
       <use x="95.410156" xlink:href="#DejaVuSans-32"/>
      </g>
     </g>
    </g>
    <g id="ytick_5">
     <g id="line2d_13">
      <g>
       <use style="stroke:#000000;stroke-width:0.8;" x="540" xlink:href="#m6e30b54b2c" y="1021.770799"/>
      </g>
     </g>
     <g id="text_13">
      <!-- 1.4 -->
      <g transform="translate(517.096875 1025.570018)scale(0.1 -0.1)">
       <use xlink:href="#DejaVuSans-31"/>
       <use x="63.623047" xlink:href="#DejaVuSans-2e"/>
       <use x="95.410156" xlink:href="#DejaVuSans-34"/>
      </g>
     </g>
    </g>
    <g id="ytick_6">
     <g id="line2d_14">
      <g>
       <use style="stroke:#000000;stroke-width:0.8;" x="540" xlink:href="#m6e30b54b2c" y="813.781818"/>
      </g>
     </g>
     <g id="text_14">
      <!-- 1.6 -->
      <g transform="translate(517.096875 817.581037)scale(0.1 -0.1)">
       <use xlink:href="#DejaVuSans-31"/>
       <use x="63.623047" xlink:href="#DejaVuSans-2e"/>
       <use x="95.410156" xlink:href="#DejaVuSans-36"/>
      </g>
     </g>
    </g>
    <g id="ytick_7">
     <g id="line2d_15">
      <g>
       <use style="stroke:#000000;stroke-width:0.8;" x="540" xlink:href="#m6e30b54b2c" y="605.792837"/>
      </g>
     </g>
     <g id="text_15">
      <!-- 1.8 -->
      <g transform="translate(517.096875 609.592056)scale(0.1 -0.1)">
       <use xlink:href="#DejaVuSans-31"/>
       <use x="63.623047" xlink:href="#DejaVuSans-2e"/>
       <use x="95.410156" xlink:href="#DejaVuSans-38"/>
      </g>
     </g>
    </g>
    <g id="ytick_8">
     <g id="line2d_16">
      <g>
       <use style="stroke:#000000;stroke-width:0.8;" x="540" xlink:href="#m6e30b54b2c" y="397.803857"/>
      </g>
     </g>
     <g id="text_16">
      <!-- 2.0 -->
      <g transform="translate(517.096875 401.603075)scale(0.1 -0.1)">
       <use xlink:href="#DejaVuSans-32"/>
       <use x="63.623047" xlink:href="#DejaVuSans-2e"/>
       <use x="95.410156" xlink:href="#DejaVuSans-30"/>
      </g>
     </g>
    </g>
   </g>
   <g id="line2d_17">
    <path clip-path="url(#pe874a60c04)" d="fmoments 692.181818 399.883747
L 693.489512 390.524242 
L 694.624061 386.364463 
L 697.927468 377.004959 
L 701.45414 371.805234 
L 704.880571 357.246006 
L 707.956157 357.246006 
L 712.722176 357.246006 
L 716.595136 357.246006 
L 721.242689 333.327273 
L 727.71281 333.327273 
L 734.684139 333.327273 
L 741.837724 342.686777 
L 750.039286 347.886501 
L 757.648514 347.886501 
L 762.842837 347.886501 
L 772.411327 366.60551 
L 778.425806 366.60551 
L 783.392308 381.164738 
L 793.507569 381.164738 
L 804.989756 386.364463 
L 812.826805 395.723967 
L 824.8102 399.883747 
L 839.071806 427.962259 
L 851.6931 456.040771 
L 871.604671 487.239118 
L 895.389203 541.316253 
L 914.024976 583.953994 
L 936.260324 668.189532 
L 958.222286 752.425069 
L 979.500785 821.061433 
L 986.927755 883.458127 
L 997.08858 974.973278 
L 997.08858 1047.769421 
L 1010.256645 1120.565565 
L 1025.383972 1166.32314 
L 1049.98866 1210.000826 
L 1063.703495 1263.038017 
L 1071.540544 1295.276309 
L 1086.029971 1337.91405 
L 1101.020605 1393.031129 
L 1114.826569 1469.051102 
" style="fill:none;stroke:#000000;stroke-linecap:square;stroke-width:1.5;"/>
    <defs>
     <path d="fmoments 0 1.5
C 0.397805 1.5 0.77937 1.341951 1.06066 1.06066 
C 1.341951 0.77937 1.5 0.397805 1.5 0 
C 1.5 -0.397805 1.341951 -0.77937 1.06066 -1.06066 
C 0.77937 -1.341951 0.397805 -1.5 0 -1.5 
C -0.397805 -1.5 -0.77937 -1.341951 -1.06066 -1.06066 
C -1.341951 -0.77937 -1.5 -0.397805 -1.5 0 
C -1.5 0.397805 -1.341951 0.77937 -1.06066 1.06066 
C -0.77937 1.341951 -0.397805 1.5 0 1.5 
z
" id="m8b3d382d16" style="stroke:#000000;"/>
    </defs>
    <g clip-path="url(#pe874a60c04)">
     <use style="stroke:#000000;" x="692.181818" xlink:href="#m8b3d382d16" y="399.883747"/>
     <use style="stroke:#000000;" x="693.489512" xlink:href="#m8b3d382d16" y="390.524242"/>
     <use style="stroke:#000000;" x="694.624061" xlink:href="#m8b3d382d16" y="386.364463"/>
     <use style="stroke:#000000;" x="697.927468" xlink:href="#m8b3d382d16" y="377.004959"/>
     <use style="stroke:#000000;" x="701.45414" xlink:href="#m8b3d382d16" y="371.805234"/>
     <use style="stroke:#000000;" x="704.880571" xlink:href="#m8b3d382d16" y="357.246006"/>
     <use style="stroke:#000000;" x="707.956157" xlink:href="#m8b3d382d16" y="357.246006"/>
     <use style="stroke:#000000;" x="712.722176" xlink:href="#m8b3d382d16" y="357.246006"/>
     <use style="stroke:#000000;" x="716.595136" xlink:href="#m8b3d382d16" y="357.246006"/>
     <use style="stroke:#000000;" x="721.242689" xlink:href="#m8b3d382d16" y="333.327273"/>
     <use style="stroke:#000000;" x="727.71281" xlink:href="#m8b3d382d16" y="333.327273"/>
     <use style="stroke:#000000;" x="734.684139" xlink:href="#m8b3d382d16" y="333.327273"/>
     <use style="stroke:#000000;" x="741.837724" xlink:href="#m8b3d382d16" y="342.686777"/>
     <use style="stroke:#000000;" x="750.039286" xlink:href="#m8b3d382d16" y="347.886501"/>
     <use style="stroke:#000000;" x="757.648514" xlink:href="#m8b3d382d16" y="347.886501"/>
     <use style="stroke:#000000;" x="762.842837" xlink:href="#m8b3d382d16" y="347.886501"/>
     <use style="stroke:#000000;" x="772.411327" xlink:href="#m8b3d382d16" y="366.60551"/>
     <use style="stroke:#000000;" x="778.425806" xlink:href="#m8b3d382d16" y="366.60551"/>
     <use style="stroke:#000000;" x="783.392308" xlink:href="#m8b3d382d16" y="381.164738"/>
     <use style="stroke:#000000;" x="793.507569" xlink:href="#m8b3d382d16" y="381.164738"/>
     <use style="stroke:#000000;" x="804.989756" xlink:href="#m8b3d382d16" y="386.364463"/>
     <use style="stroke:#000000;" x="812.826805" xlink:href="#m8b3d382d16" y="395.723967"/>
     <use style="stroke:#000000;" x="824.8102" xlink:href="#m8b3d382d16" y="399.883747"/>
     <use style="stroke:#000000;" x="839.071806" xlink:href="#m8b3d382d16" y="427.962259"/>
     <use style="stroke:#000000;" x="851.6931" xlink:href="#m8b3d382d16" y="456.040771"/>
     <use style="stroke:#000000;" x="871.604671" xlink:href="#m8b3d382d16" y="487.239118"/>
     <use style="stroke:#000000;" x="895.389203" xlink:href="#m8b3d382d16" y="541.316253"/>
     <use style="stroke:#000000;" x="914.024976" xlink:href="#m8b3d382d16" y="583.953994"/>
     <use style="stroke:#000000;" x="936.260324" xlink:href="#m8b3d382d16" y="668.189532"/>
     <use style="stroke:#000000;" x="958.222286" xlink:href="#m8b3d382d16" y="752.425069"/>
     <use style="stroke:#000000;" x="979.500785" xlink:href="#m8b3d382d16" y="821.061433"/>
     <use style="stroke:#000000;" x="986.927755" xlink:href="#m8b3d382d16" y="883.458127"/>
     <use style="stroke:#000000;" x="997.08858" xlink:href="#m8b3d382d16" y="974.973278"/>
     <use style="stroke:#000000;" x="997.08858" xlink:href="#m8b3d382d16" y="1047.769421"/>
     <use style="stroke:#000000;" x="1010.256645" xlink:href="#m8b3d382d16" y="1120.565565"/>
     <use style="stroke:#000000;" x="1025.383972" xlink:href="#m8b3d382d16" y="1166.32314"/>
     <use style="stroke:#000000;" x="1049.98866" xlink:href="#m8b3d382d16" y="1210.000826"/>
     <use style="stroke:#000000;" x="1063.703495" xlink:href="#m8b3d382d16" y="1263.038017"/>
     <use style="stroke:#000000;" x="1071.540544" xlink:href="#m8b3d382d16" y="1295.276309"/>
     <use style="stroke:#000000;" x="1086.029971" xlink:href="#m8b3d382d16" y="1337.91405"/>
     <use style="stroke:#000000;" x="1101.020605" xlink:href="#m8b3d382d16" y="1393.031129"/>
     <use style="stroke:#000000;" x="1114.826569" xlink:href="#m8b3d382d16" y="1469.051102"/>
    </g>
   </g>
   <g id="line2d_18">
    <path clip-path="url(#pe874a60c04)" d="fmoments 692.181818 399.312277
L 693.040033 393.994549 
L 693.898248 389.54261 
L 694.756462 385.795797 
L 695.614677 382.618508 
L 697.331107 377.5364 
L 699.047536 373.598651 
L 700.763966 370.335769 
L 703.33861 366.078933 
L 707.629683 359.567983 
L 711.920757 353.350314 
L 715.353616 348.749835 
L 717.92826 345.65157 
L 720.502904 342.931027 
L 723.077549 340.631381 
L 724.793978 339.34368 
L 726.510408 338.255411 
L 728.226837 337.36642 
L 729.943266 336.674821 
L 731.659696 336.177585 
L 733.376125 335.871006 
L 735.092555 335.751015 
L 736.808984 335.813364 
L 738.525414 336.053692 
L 740.241843 336.467484 
L 741.958273 337.049967 
L 744.532917 338.22847 
L 747.107561 339.754422 
L 749.682205 341.603087 
L 752.25685 343.744136 
L 754.831494 346.140993 
L 758.264353 349.659776 
L 762.555426 354.410369 
L 771.995788 365.044053 
L 775.428647 368.586608 
L 778.861506 371.804045 
L 782.294365 374.643917 
L 784.869009 376.515811 
L 787.443654 378.174829 
L 790.876513 380.093272 
L 794.309371 381.751535 
L 806.324378 387.246885 
L 808.899022 388.745601 
L 811.473666 390.480881 
L 814.04831 392.497358 
L 816.622955 394.830521 
L 819.197599 397.505311 
L 821.772243 400.535195 
L 824.346887 403.921753 
L 826.921531 407.654781 
L 829.496176 411.712907 
L 832.929034 417.573838 
L 836.361893 423.858499 
L 841.511182 433.823052 
L 854.384403 459.079007 
L 859.533691 468.503067 
L 864.68298 477.371507 
L 870.690483 487.207682 
L 878.414415 499.857566 
L 881.847274 505.839919 
L 885.280133 512.246294 
L 888.712992 519.208696 
L 891.287636 524.862839 
L 893.862281 530.92786 
L 897.295139 539.692694 
L 900.727998 549.247672 
L 904.160857 559.566998 
L 907.593716 570.579782 
L 911.88479 585.14565 
L 917.892293 606.485338 
L 927.332655 640.110909 
L 931.623729 654.640664 
L 935.914802 668.412485 
L 940.205876 681.405533 
L 945.355165 696.204767 
L 953.079097 718.226393 
L 956.511956 728.737621 
L 959.0866 737.24316 
L 961.661244 746.472437 
L 964.235889 756.595493 
L 966.810533 767.773847 
L 969.385177 780.152951 
L 971.959821 793.854893 
L 974.534465 808.971164 
L 977.10911 825.555918 
L 979.683754 843.620337 
L 982.258398 863.127709 
L 985.691257 891.222728 
L 989.124116 921.367177 
L 993.41519 961.129085 
L 1003.713766 1057.826065 
L 1007.146625 1087.467138 
L 1009.72127 1107.951851 
L 1012.295914 1126.585648 
L 1014.870558 1143.105042 
L 1016.586987 1152.843002 
L 1018.303417 1161.513253 
L 1020.019846 1169.094086 
L 1021.736276 1175.583031 
L 1023.452705 1180.996273 
L 1025.169135 1185.371331 
L 1026.885564 1188.765745 
L 1027.743779 1190.118343 
L 1028.601994 1191.25663 
L 1029.460208 1192.192759 
L 1030.318423 1192.94132 
L 1031.176638 1193.51685 
L 1032.034853 1193.935472 
L 1032.893067 1194.213888 
L 1034.609497 1194.423374 
L 1036.325926 1194.29758 
L 1041.475215 1193.55418 
L 1043.191644 1193.748588 
L 1044.049859 1194.02174 
L 1044.908074 1194.438137 
L 1045.766288 1195.016118 
L 1046.624503 1195.772381 
L 1047.482718 1196.723601 
L 1048.340933 1197.884407 
L 1049.199147 1199.267812 
L 1050.057362 1200.885021 
L 1051.773792 1204.858229 
L 1053.490221 1209.856791 
L 1055.20665 1215.898849 
L 1056.92308 1222.962418 
L 1058.639509 1230.987481 
L 1060.355939 1239.86934 
L 1062.930583 1254.4716 
L 1071.51273 1305.182494 
L 1073.22916 1313.699274 
L 1074.945589 1321.055103 
L 1076.662019 1327.039421 
L 1077.520234 1329.46901 
L 1078.378448 1331.507127 
L 1079.236663 1333.147014 
L 1080.094878 1334.390329 
L 1080.953092 1335.245608 
L 1081.811307 1335.726495 
L 1082.669522 1335.858197 
L 1083.527737 1335.672357 
L 1084.385951 1335.208401 
L 1085.244166 1334.518191 
L 1086.960596 1332.709631 
L 1088.677025 1330.843005 
L 1089.53524 1330.113887 
L 1090.393455 1329.661057 
L 1091.251669 1329.596239 
L 1092.109884 1330.043189 
L 1092.968099 1331.123387 
L 1093.826313 1332.966253 
L 1094.684528 1335.697913 
L 1095.542743 1339.44707 
L 1096.400958 1344.331181 
L 1097.259172 1350.461542 
L 1098.117387 1357.934879 
L 1098.975602 1366.825097 
L 1099.833817 1377.182623 
L 1101.550246 1402.329197 
L 1103.266676 1432.961455 
L 1104.983105 1467.686462 
L 1105.84132 1469.051102 
L 1114.423467 1469.051102 
L 1115.281682 1438.905726 
L 1116.139897 1366.434446 
L 1116.998111 1269.913208 
L 1117.856326 1144.813887 
L 1118.714541 985.998338 
L 1119.572755 787.656767 
L 1120.43097 543.221576 
L 1120.43097 543.221576 
" style="fill:none;stroke:#1f77b4;stroke-linecap:square;stroke-width:1.5;"/>
   </g>
   <g id="line2d_19">
    <path clip-path="url(#pe874a60c04)" d="fmoments 1125.443036 1518.136501
L 1136.378453 1568.885813 
L 1153.237221 1613.083471 
L 1164.62828 1647.609642 
L 1174.652412 1677.144077 
L 1186.499114 1698.670937 
L 1186.499114 1733.093113 
L 1190.599895 1759.611708 
L 1200.624028 1797.673691 
L 1211.559444 1815.872727 
L 1228.418212 1800.689532 
L 1237.53106 1782.074518 
L 1246.643907 1746.508402 
L 1264.869602 1709.17438 
L 1269.426026 1653.225344 
L 1281.272727 1595.300413 
L 1284.006582 1552.246694 
L 1295.853283 1511.584848 
L 1313.167693 1475.914738 
L 1333.6716 1436.708815 
L 1360.5545 1393.031129 
L 1416.598512 1355.593113 
L 1477.198947 1327.514601 
L 1570.605633 1311.915427 
L 1686.794438 1284.87686 
L 1817.563798 1271.357576 
L 1930.563106 1263.038017 
L 1996.175608 1260.958127 
L 2075.913023 1252.638567 
L 2226.275005 1244.319008 
L 2339.274314 1249.518733 
L 2446.805913 1234.959504 
L 2568.462426 1224.560055 
L 2706.522065 1206.880992 
L 2863.263041 1189.201928 
L 3022.282228 1189.201928 
L 3134.825894 1187.122039 
L 3273.341175 1180.882369 
L 3440.561925 1177.762534 
L 3618.718092 1180.882369 
L 3735.818182 1171.522865 
" style="fill:none;stroke:#000000;stroke-linecap:square;stroke-width:1.5;"/>
    <g clip-path="url(#pe874a60c04)">
     <use style="stroke:#000000;" x="1125.443036" xlink:href="#m8b3d382d16" y="1518.136501"/>
     <use style="stroke:#000000;" x="1136.378453" xlink:href="#m8b3d382d16" y="1568.885813"/>
     <use style="stroke:#000000;" x="1153.237221" xlink:href="#m8b3d382d16" y="1613.083471"/>
     <use style="stroke:#000000;" x="1164.62828" xlink:href="#m8b3d382d16" y="1647.609642"/>
     <use style="stroke:#000000;" x="1174.652412" xlink:href="#m8b3d382d16" y="1677.144077"/>
     <use style="stroke:#000000;" x="1186.499114" xlink:href="#m8b3d382d16" y="1698.670937"/>
     <use style="stroke:#000000;" x="1186.499114" xlink:href="#m8b3d382d16" y="1733.093113"/>
     <use style="stroke:#000000;" x="1190.599895" xlink:href="#m8b3d382d16" y="1759.611708"/>
     <use style="stroke:#000000;" x="1200.624028" xlink:href="#m8b3d382d16" y="1797.673691"/>
     <use style="stroke:#000000;" x="1211.559444" xlink:href="#m8b3d382d16" y="1815.872727"/>
     <use style="stroke:#000000;" x="1228.418212" xlink:href="#m8b3d382d16" y="1800.689532"/>
     <use style="stroke:#000000;" x="1237.53106" xlink:href="#m8b3d382d16" y="1782.074518"/>
     <use style="stroke:#000000;" x="1246.643907" xlink:href="#m8b3d382d16" y="1746.508402"/>
     <use style="stroke:#000000;" x="1264.869602" xlink:href="#m8b3d382d16" y="1709.17438"/>
     <use style="stroke:#000000;" x="1269.426026" xlink:href="#m8b3d382d16" y="1653.225344"/>
     <use style="stroke:#000000;" x="1281.272727" xlink:href="#m8b3d382d16" y="1595.300413"/>
     <use style="stroke:#000000;" x="1284.006582" xlink:href="#m8b3d382d16" y="1552.246694"/>
     <use style="stroke:#000000;" x="1295.853283" xlink:href="#m8b3d382d16" y="1511.584848"/>
     <use style="stroke:#000000;" x="1313.167693" xlink:href="#m8b3d382d16" y="1475.914738"/>
     <use style="stroke:#000000;" x="1333.6716" xlink:href="#m8b3d382d16" y="1436.708815"/>
     <use style="stroke:#000000;" x="1360.5545" xlink:href="#m8b3d382d16" y="1393.031129"/>
     <use style="stroke:#000000;" x="1416.598512" xlink:href="#m8b3d382d16" y="1355.593113"/>
     <use style="stroke:#000000;" x="1477.198947" xlink:href="#m8b3d382d16" y="1327.514601"/>
     <use style="stroke:#000000;" x="1570.605633" xlink:href="#m8b3d382d16" y="1311.915427"/>
     <use style="stroke:#000000;" x="1686.794438" xlink:href="#m8b3d382d16" y="1284.87686"/>
     <use style="stroke:#000000;" x="1817.563798" xlink:href="#m8b3d382d16" y="1271.357576"/>
     <use style="stroke:#000000;" x="1930.563106" xlink:href="#m8b3d382d16" y="1263.038017"/>
     <use style="stroke:#000000;" x="1996.175608" xlink:href="#m8b3d382d16" y="1260.958127"/>
     <use style="stroke:#000000;" x="2075.913023" xlink:href="#m8b3d382d16" y="1252.638567"/>
     <use style="stroke:#000000;" x="2226.275005" xlink:href="#m8b3d382d16" y="1244.319008"/>
     <use style="stroke:#000000;" x="2339.274314" xlink:href="#m8b3d382d16" y="1249.518733"/>
     <use style="stroke:#000000;" x="2446.805913" xlink:href="#m8b3d382d16" y="1234.959504"/>
     <use style="stroke:#000000;" x="2568.462426" xlink:href="#m8b3d382d16" y="1224.560055"/>
     <use style="stroke:#000000;" x="2706.522065" xlink:href="#m8b3d382d16" y="1206.880992"/>
     <use style="stroke:#000000;" x="2863.263041" xlink:href="#m8b3d382d16" y="1189.201928"/>
     <use style="stroke:#000000;" x="3022.282228" xlink:href="#m8b3d382d16" y="1189.201928"/>
     <use style="stroke:#000000;" x="3134.825894" xlink:href="#m8b3d382d16" y="1187.122039"/>
     <use style="stroke:#000000;" x="3273.341175" xlink:href="#m8b3d382d16" y="1180.882369"/>
     <use style="stroke:#000000;" x="3440.561925" xlink:href="#m8b3d382d16" y="1177.762534"/>
     <use style="stroke:#000000;" x="3618.718092" xlink:href="#m8b3d382d16" y="1180.882369"/>
     <use style="stroke:#000000;" x="3735.818182" xlink:href="#m8b3d382d16" y="1171.522865"/>
    </g>
   </g>
   <g id="line2d_20">
    <path clip-path="url(#pe874a60c04)" d="fmoments 1120.43097 1406.837679
L 1125.672227 1462.169431 
L 1130.913484 1511.461015 
L 1136.154741 1555.109462 
L 1141.395998 1593.492849 
L 1146.637255 1626.97098 
L 1151.878512 1655.886062 
L 1157.119769 1680.563345 
L 1162.361026 1701.311757 
L 1167.602283 1718.424514 
L 1172.84354 1732.179719 
L 1178.084796 1742.840937 
L 1183.326053 1750.657759 
L 1188.56731 1755.866346 
L 1193.808567 1758.689963 
L 1199.049824 1759.339485 
L 1204.291081 1758.013903 
L 1209.532338 1754.900808 
L 1214.773595 1750.176854 
L 1220.014852 1744.008221 
L 1225.256109 1736.551048 
L 1230.497366 1727.95187 
L 1235.738623 1718.348024 
L 1240.97988 1707.868053 
L 1246.221137 1696.632096 
L 1251.462394 1684.752261 
L 1256.703651 1672.332993 
L 1261.944907 1659.471419 
L 1272.427421 1632.775336 
L 1288.151192 1591.458465 
L 1303.874963 1550.157023 
L 1314.357477 1523.31603 
L 1324.839991 1497.402931 
L 1330.081248 1484.874234 
L 1335.322505 1472.666152 
L 1340.563762 1460.801061 
L 1345.805018 1449.298255 
L 1351.046275 1438.174128 
L 1356.287532 1427.442358 
L 1361.528789 1417.114085 
L 1366.770046 1407.198068 
L 1372.011303 1397.700858 
L 1377.25256 1388.626939 
L 1382.493817 1379.978885 
L 1387.735074 1371.757494 
L 1392.976331 1363.961925 
L 1398.217588 1356.589825 
L 1403.458845 1349.637455 
L 1408.700102 1343.099803 
L 1413.941359 1336.970697 
L 1419.182616 1331.242912 
L 1424.423873 1325.908271 
L 1429.665129 1320.95774 
L 1434.906386 1316.381521 
L 1440.147643 1312.169136 
L 1445.3889 1308.309513 
L 1450.630157 1304.791061 
L 1455.871414 1301.601745 
L 1461.112671 1298.729156 
L 1466.353928 1296.160573 
L 1471.595185 1293.883031 
L 1476.836442 1291.883373 
L 1482.077699 1290.14831 
L 1487.318956 1288.664468 
L 1492.560213 1287.418439 
L 1497.80147 1286.396823 
L 1503.042727 1285.586273 
L 1508.283984 1284.97353 
L 1513.52524 1284.545463 
L 1518.766497 1284.2891 
L 1524.007754 1284.191658 
L 1529.249011 1284.240572 
L 1534.490268 1284.423524 
L 1544.972782 1285.143615 
L 1555.455296 1286.25909 
L 1565.93781 1287.682293 
L 1576.420324 1289.331217 
L 1592.144095 1292.063255 
L 1623.591636 1297.654612 
L 1639.315407 1300.151575 
L 1649.797921 1301.608199 
L 1660.280435 1302.860582 
L 1670.762949 1303.882948 
L 1681.245462 1304.655144 
L 1691.727976 1305.162363 
L 1702.21049 1305.394825 
L 1712.693004 1305.347451 
L 1723.175518 1305.019512 
L 1733.658032 1304.414269 
L 1744.140546 1303.53861 
L 1754.62306 1302.402682 
L 1765.105573 1301.019514 
L 1775.588087 1299.40466 
L 1786.070601 1297.57583 
L 1796.553115 1295.552541 
L 1807.035629 1293.355772 
L 1822.7594 1289.783946 
L 1838.483171 1285.94949 
L 1859.448198 1280.566011 
L 1911.860768 1266.89257 
L 1927.584539 1263.022456 
L 1943.308309 1259.368934 
L 1959.03208 1255.982029 
L 1974.755851 1252.903447 
L 1985.238365 1251.03901 
L 1995.720879 1249.334038 
L 2006.203393 1247.794349 
L 2016.685906 1246.424006 
L 2027.16842 1245.225341 
L 2037.650934 1244.198999 
L 2048.133448 1243.343982 
L 2058.615962 1242.657715 
L 2069.098476 1242.136122 
L 2079.58099 1241.773704 
L 2095.30476 1241.513255 
L 2111.028531 1241.567176 
L 2126.752302 1241.901929 
L 2142.476073 1242.479429 
L 2158.199844 1243.257946 
L 2179.164871 1244.531557 
L 2210.612413 1246.722531 
L 2247.301212 1249.257927 
L 2268.266239 1250.491201 
L 2283.99001 1251.240109 
L 2299.713781 1251.798882 
L 2315.437552 1252.136849 
L 2331.161323 1252.228102 
L 2346.885093 1252.051846 
L 2362.608864 1251.592659 
L 2378.332635 1250.840645 
L 2394.056406 1249.791503 
L 2409.780177 1248.446494 
L 2425.503948 1246.812315 
L 2441.227718 1244.900887 
L 2456.951489 1242.729063 
L 2472.67526 1240.318248 
L 2488.399031 1237.693958 
L 2509.364059 1233.913612 
L 2530.329086 1229.883034 
L 2561.776628 1223.553358 
L 2608.94794 1214.014942 
L 2629.912968 1209.984521 
L 2650.877996 1206.197456 
L 2666.601767 1203.55954 
L 2682.325537 1201.123937 
L 2698.049308 1198.912327 
L 2713.773079 1196.942015 
L 2729.49685 1195.225617 
L 2745.220621 1193.770812 
L 2760.944392 1192.580202 
L 2776.668162 1191.651249 
L 2792.391933 1190.976315 
L 2808.115704 1190.542796 
L 2823.839475 1190.333351 
L 2839.563246 1190.32623 
L 2860.528273 1190.586459 
L 2881.493301 1191.089825 
L 2912.940843 1192.126688 
L 2960.112155 1193.745548 
L 2981.077183 1194.271678 
L 3002.042211 1194.569748 
L 3017.765981 1194.604841 
L 3033.489752 1194.453874 
L 3049.213523 1194.100437 
L 3064.937294 1193.534029 
L 3080.661065 1192.750587 
L 3096.384835 1191.752894 
L 3112.108606 1190.550845 
L 3127.832377 1189.161553 
L 3148.797405 1187.060823 
L 3175.00369 1184.146767 
L 3232.657516 1177.567461 
L 3248.381287 1175.987253 
L 3264.105057 1174.601845 
L 3279.828828 1173.463765 
L 3295.552599 1172.621336 
L 3306.035113 1172.245022 
L 3316.517627 1172.029348 
L 3327.000141 1171.982728 
L 3337.482655 1172.111288 
L 3347.965168 1172.418575 
L 3358.447682 1172.905273 
L 3368.930196 1173.568941 
L 3379.41271 1174.403771 
L 3389.895224 1175.400372 
L 3405.618995 1177.168756 
L 3421.342766 1179.20968 
L 3442.307793 1182.211747 
L 3473.755335 1186.792423 
L 3489.479106 1188.831716 
L 3499.96162 1189.997253 
L 3510.444134 1190.953254 
L 3520.926647 1191.652943 
L 3531.409161 1192.050666 
L 3541.891675 1192.103298 
L 3552.374189 1191.771889 
L 3562.856703 1191.023577 
L 3568.09796 1190.48501 
L 3573.339217 1189.833777 
L 3578.580474 1189.068507 
L 3583.821731 1188.188681 
L 3594.304245 1186.088104 
L 3604.786758 1183.54869 
L 3615.269272 1180.607512 
L 3625.751786 1177.326114 
L 3636.2343 1173.795001 
L 3641.475557 1171.973224 
L 3646.716814 1171.522865 
L 3730.576925 1171.522865 
L 3735.818182 1171.798439 
L 3735.818182 1171.798439 
" style="fill:none;stroke:#ff7f0e;stroke-linecap:square;stroke-width:1.5;"/>
   </g>
   <g id="patch_3">
    <path d="fmoments 540 1890
L 540 259.2 
" style="fill:none;stroke:#000000;stroke-linecap:square;stroke-linejoin:miter;stroke-width:0.8;"/>
   </g>
   <g id="patch_4">
    <path d="fmoments 3888 1890
L 3888 259.2 
" style="fill:none;stroke:#000000;stroke-linecap:square;stroke-linejoin:miter;stroke-width:0.8;"/>
   </g>
   <g id="patch_5">
    <path d="fmoments 540 1890
L 3888 1890 
" style="fill:none;stroke:#000000;stroke-linecap:square;stroke-linejoin:miter;stroke-width:0.8;"/>
   </g>
   <g id="patch_6">
    <path d="fmoments 540 259.2
L 3888 259.2 
" style="fill:none;stroke:#000000;stroke-linecap:square;stroke-linejoin:miter;stroke-width:0.8;"/>
   </g>
   <g id="text_17">
    <!-- 12 -->
    <g transform="translate(2206.365 253.2)scale(0.12 -0.12)">
     <use xlink:href="#DejaVuSans-31"/>
     <use x="63.623047" xlink:href="#DejaVuSans-32"/>
    </g>
   </g>
  </g>
 </g>
 <defs>
  <clipPath id="pe874a60c04">
   <rect height="1630.8" width="3348" x="540" y="259.2"/>
  </clipPath>
 </defs>
</svg>
